HIERARCHY
ROOT joint_Root
{
	OFFSET 0.0 0.0 0.0
	CHANNELS 6 Xposition Yposition Zposition Zrotation Xrotation Yrotation 
	JOINT Hips
	{
		OFFSET -17.1583 93.1646 452.98
		CHANNELS 6 Xposition Yposition Zposition Zrotation Xrotation Yrotation 
		JOINT Spine
		{
			OFFSET 15.7357 0.0 0.0
			CHANNELS 6 Xposition Yposition Zposition Zrotation Xrotation Yrotation 
			JOINT Chest
			{
				OFFSET 8.98455 -0.406207 0.0
				CHANNELS 6 Xposition Yposition Zposition Zrotation Xrotation Yrotation 
				JOINT Neck
				{
					OFFSET 16.3773 0.0 0.0
					CHANNELS 6 Xposition Yposition Zposition Zrotation Xrotation Yrotation 
					JOINT Head
					{
						OFFSET 6.45672 0.0 0.0
						CHANNELS 6 Xposition Yposition Zposition Zrotation Xrotation Yrotation 
						End Site
						{
							OFFSET 0.0 0.0 0.0
						}
					}
				}
				JOINT Shoulder_L
				{
					OFFSET 12.9942 -0.242716 4.98039
					CHANNELS 6 Xposition Yposition Zposition Zrotation Xrotation Yrotation 
					JOINT UpperArm_L
					{
						OFFSET 5.34809 0.0 0.0
						CHANNELS 6 Xposition Yposition Zposition Zrotation Xrotation Yrotation 
						JOINT LowerArm_L
						{
							OFFSET 24.3286 1.87007e-05 0.0
							CHANNELS 6 Xposition Yposition Zposition Zrotation Xrotation Yrotation 
							JOINT Hand_L
							{
								OFFSET 22.2916 0.0 0.0
								CHANNELS 6 Xposition Yposition Zposition Zrotation Xrotation Yrotation 
								End Site
								{
									OFFSET 0.0 0.0 0.0
								}
							}
						}
					}
				}
				JOINT Shoulder_R
				{
					OFFSET 12.9945 -0.242716 -4.98039
					CHANNELS 6 Xposition Yposition Zposition Zrotation Xrotation Yrotation 
					JOINT UpperArm_R
					{
						OFFSET -5.34813 0.0 0.0
						CHANNELS 6 Xposition Yposition Zposition Zrotation Xrotation Yrotation 
						JOINT LowerArm_R
						{
							OFFSET -24.3289 0.000322201 0.0
							CHANNELS 6 Xposition Yposition Zposition Zrotation Xrotation Yrotation 
							JOINT Hand_R
							{
								OFFSET -22.2915 -0.000108084 0.0
								CHANNELS 6 Xposition Yposition Zposition Zrotation Xrotation Yrotation 
								End Site
								{
									OFFSET 0.0 0.0 0.0
								}
							}
						}
					}
				}
			}
		}
		JOINT UpperLeg_L
		{
			OFFSET -2.19248 -6.46944 0.0
			CHANNELS 6 Xposition Yposition Zposition Zrotation Xrotation Yrotation 
			JOINT LowerLeg_L
			{
				OFFSET 39.0811 0.0 -1.23785e-05
				CHANNELS 6 Xposition Yposition Zposition Zrotation Xrotation Yrotation 
				JOINT Foot_L
				{
					OFFSET 40.9854 0.0 -1.26872e-05
					CHANNELS 6 Xposition Yposition Zposition Zrotation Xrotation Yrotation 
					JOINT Toes_L
					{
						OFFSET 11.7543 0.0 0.0
						CHANNELS 6 Xposition Yposition Zposition Zrotation Xrotation Yrotation 
						End Site
						{
							OFFSET 0.0 0.0 0.0
						}
					}
				}
			}
		}
		JOINT UpperLeg_R
		{
			OFFSET -2.19251 6.46944 0.0
			CHANNELS 6 Xposition Yposition Zposition Zrotation Xrotation Yrotation 
			JOINT LowerLeg_R
			{
				OFFSET -39.0811 -0.00228153 -0.0401928
				CHANNELS 6 Xposition Yposition Zposition Zrotation Xrotation Yrotation 
				JOINT Foot_R
				{
					OFFSET -40.9854 0.0 0.0
					CHANNELS 6 Xposition Yposition Zposition Zrotation Xrotation Yrotation 
					JOINT Toes_R
					{
						OFFSET -11.7543 0.0 0.0
						CHANNELS 6 Xposition Yposition Zposition Zrotation Xrotation Yrotation 
						End Site
						{
							OFFSET 0.0 0.0 0.0
						}
					}
				}
			}
		}
	}
}
MOTION
Frames:	4
Frame Time:	0.0333333
0.000000 0.000000 0.000000 0.000000 0.000000 -0.000000 -1.891620 89.156200 501.528000 -92.172500 18.792300 177.052000 15.735700 0.000005 -0.000001 120.863000 87.461400 -120.795000 8.984550 -0.406207 -0.000000 -3.410960 2.596640 0.211982 16.377300 -0.000001 -0.000001 3.681050 7.502020 -2.637970 6.456720 -0.000001 -0.000000 1.162950 8.300540 -4.413530 12.994200 -0.242716 4.980390 -92.965600 7.414880 -68.128000 5.348090 -0.000007 -0.000001 -69.088000 -1.940760 6.389530 24.328600 0.000019 0.000005 9.106500 30.433300 -17.559600 22.291600 -0.000001 0.000005 47.652800 4.712020 12.941300 12.994500 -0.242716 -4.980390 88.683700 4.630400 -74.111900 -5.348130 -0.000001 -0.000004 -70.827900 19.287200 -8.320710 -24.328900 0.000322 -0.000009 5.329210 11.965000 -24.231300 -22.291500 -0.000108 -0.000004 31.430700 5.486960 -6.014740 -2.192480 -6.469440 -0.000000 172.504000 -10.238400 -27.651200 39.081100 -0.000007 -0.000012 0.547856 -0.692981 38.330600 40.985400 -0.000006 -0.000013 5.944540 2.166570 -69.696600 11.754300 -0.000000 0.000003 -0.000671 0.178249 -9.346500 -2.192510 6.469440 -0.000001 167.550000 12.241300 -179.409000 -39.081100 -0.002282 -0.040193 0.218498 -0.220627 44.290900 -40.985400 0.000008 0.000006 -6.828290 -30.403100 -47.423800 -11.754300 -0.000006 -0.000006 0.002387 0.066928 -13.858700
0.000000 0.000000 0.000000 0.000000 0.000000 -0.000000 -2.154120 89.329900 497.812000 -93.010600 18.013200 178.462000 15.735700 0.000005 -0.000001 105.802000 87.398300 -106.017000 8.984550 -0.406207 -0.000000 -2.756830 1.436200 -0.396562 16.377300 -0.000001 -0.000001 3.686240 7.703290 -2.940400 6.456720 -0.000001 -0.000000 1.417430 8.657150 -3.794760 12.994200 -0.242716 4.980390 -92.730800 6.944280 -68.470300 5.348090 -0.000007 -0.000001 -67.252400 -4.302800 2.850600 24.328600 0.000019 0.000005 10.858100 30.767800 -20.553400 22.291600 -0.000001 0.000005 48.260600 4.710380 12.969800 12.994500 -0.242716 -4.980390 88.679300 4.573090 -73.872600 -5.348130 -0.000001 -0.000004 -69.670300 14.934800 -5.436850 -24.328900 0.000322 -0.000009 3.668300 12.853200 -16.083000 -22.291500 -0.000108 -0.000004 30.178100 5.446520 -4.514570 -2.192480 -6.469440 -0.000000 171.183000 -12.040300 -23.344000 39.081100 -0.000007 -0.000012 0.617414 -0.805923 37.457400 40.985400 -0.000006 -0.000013 7.327470 4.188660 -72.349200 11.754300 -0.000000 0.000003 -0.000751 0.179438 -9.298180 -2.192510 6.469440 -0.000001 168.245000 6.401080 175.574000 -39.081100 -0.002282 -0.040193 0.296180 -0.211012 54.235100 -40.985400 0.000008 0.000006 -3.624730 -18.370800 -41.345800 -11.754300 -0.000006 -0.000006 -0.001419 0.188855 -8.911980
0.000000 0.000000 0.000000 0.000000 0.000000 -0.000000 -2.188430 89.642700 494.664000 -92.978500 16.035100 179.477000 15.735700 0.000005 -0.000001 87.893900 87.083400 -88.068000 8.984550 -0.406207 -0.000000 -1.937060 -0.199580 -0.351482 16.377300 -0.000001 -0.000001 3.524500 7.602010 -3.421900 6.456720 -0.000001 -0.000000 1.533080 8.924610 -3.488150 12.994200 -0.242716 4.980390 -92.651800 6.885970 -68.878400 5.348090 -0.000007 -0.000001 -65.406700 -6.674980 -0.085801 24.328600 0.000019 0.000005 14.703400 31.271400 -26.816100 22.291600 -0.000001 0.000005 49.404300 4.675520 13.593800 12.994500 -0.242716 -4.980390 88.748100 4.242380 -73.542700 -5.348130 -0.000001 -0.000004 -67.713700 10.675000 -2.371900 -24.328900 0.000322 -0.000009 2.275840 13.557900 -9.625930 -22.291500 -0.000108 -0.000004 29.928800 5.390830 -2.642730 -2.192480 -6.469440 -0.000000 171.246000 -12.593800 -18.962700 39.081100 -0.000007 -0.000012 0.616798 -0.856827 35.750700 40.985400 -0.000006 -0.000013 8.357800 6.211690 -74.039800 11.754300 -0.000000 0.000003 -0.000664 0.178141 -9.350870 -2.192510 6.469440 -0.000001 170.457000 2.330480 170.483000 -39.081100 -0.002282 -0.040193 0.243003 -0.126835 62.126400 -40.985400 0.000008 0.000006 -2.715420 -2.640720 -40.284900 -11.754300 -0.000006 -0.000006 -0.001942 0.195660 -8.635270
0.000000 0.000000 0.000000 0.000000 0.000000 -0.000000 -1.867250 90.339900 491.615000 -92.083300 13.110400 -179.990000 15.735700 0.000005 -0.000001 74.114500 86.566600 -73.927500 8.984550 -0.406207 -0.000000 -1.158440 -1.893720 0.354632 16.377300 -0.000001 -0.000001 3.475430 7.114340 -3.835240 6.456720 -0.000001 -0.000000 1.539280 8.936760 -3.528950 12.994200 -0.242716 4.980390 -92.621300 7.001480 -69.414300 5.348090 -0.000007 -0.000001 -63.917000 -8.302640 -2.605300 24.328600 0.000019 0.000005 20.583900 31.575700 -35.647200 22.291600 -0.000001 0.000005 50.359400 4.611190 14.721000 12.994500 -0.242716 -4.980390 88.880900 3.642600 -72.908500 -5.348130 -0.000001 -0.000004 -65.365400 6.852340 1.508540 -24.328900 0.000322 -0.000009 1.376550 13.573200 -5.850630 -22.291500 -0.000108 -0.000004 30.056500 5.334310 -0.911994 -2.192480 -6.469440 -0.000000 172.598000 -11.284500 -13.859100 39.081100 -0.000007 -0.000012 0.513747 -0.816152 32.190900 40.985400 -0.000006 -0.000013 8.656340 7.534210 -74.568000 11.754300 -0.000000 0.000003 -0.000486 0.175434 -9.460860 -2.192510 6.469440 -0.000001 173.268000 0.968286 165.568000 -39.081100 -0.002282 -0.040193 0.214582 -0.089949 66.954100 -40.985400 0.000008 0.000006 -4.457340 -6.293040 -43.018400 -11.754300 -0.000006 -0.000006 -0.001836 0.194317 -8.689900
